<mxfile host="app.diagrams.net" modified="2024-02-28T22:59:23.493Z" agent="Mozilla/5.0 (Windows NT 10.0; Win64; x64) AppleWebKit/537.36 (KHTML, like Gecko) Chrome/122.0.0.0 Safari/537.36 Edg/122.0.0.0" etag="UTZtM2xyBKOrVEquhwjX" version="23.1.7" type="github" pages="2">
  <diagram name="Page-1" id="qW-COXewQc3CJtd0EOgz">
    <mxGraphModel dx="1002" dy="569" grid="1" gridSize="10" guides="1" tooltips="1" connect="1" arrows="1" fold="1" page="1" pageScale="1" pageWidth="850" pageHeight="1100" math="0" shadow="0">
      <root>
        <mxCell id="0" />
        <mxCell id="1" parent="0" />
        <mxCell id="Vv-KsNDUrpblIdq9bAYZ-1" value="" style="endArrow=none;html=1;rounded=0;strokeWidth=4;" parent="1" edge="1">
          <mxGeometry width="50" height="50" relative="1" as="geometry">
            <mxPoint x="20" y="59" as="sourcePoint" />
            <mxPoint x="210" y="59" as="targetPoint" />
          </mxGeometry>
        </mxCell>
        <mxCell id="Vv-KsNDUrpblIdq9bAYZ-2" value="" style="endArrow=none;html=1;rounded=0;strokeWidth=4;" parent="1" edge="1">
          <mxGeometry width="50" height="50" relative="1" as="geometry">
            <mxPoint x="20" y="139" as="sourcePoint" />
            <mxPoint x="210" y="139" as="targetPoint" />
          </mxGeometry>
        </mxCell>
        <mxCell id="Vv-KsNDUrpblIdq9bAYZ-3" value="Develop branch" style="text;html=1;align=center;verticalAlign=middle;whiteSpace=wrap;rounded=0;" parent="1" vertex="1">
          <mxGeometry x="70" y="29" width="90" height="30" as="geometry" />
        </mxCell>
        <mxCell id="Vv-KsNDUrpblIdq9bAYZ-53" style="edgeStyle=orthogonalEdgeStyle;rounded=0;orthogonalLoop=1;jettySize=auto;html=1;exitX=1;exitY=0.5;exitDx=0;exitDy=0;entryX=0.25;entryY=0;entryDx=0;entryDy=0;" parent="1" source="Vv-KsNDUrpblIdq9bAYZ-4" target="Vv-KsNDUrpblIdq9bAYZ-9" edge="1">
          <mxGeometry relative="1" as="geometry" />
        </mxCell>
        <mxCell id="Vv-KsNDUrpblIdq9bAYZ-4" value="Main branch" style="text;html=1;align=center;verticalAlign=middle;whiteSpace=wrap;rounded=0;" parent="1" vertex="1">
          <mxGeometry x="70" y="109" width="90" height="30" as="geometry" />
        </mxCell>
        <mxCell id="Vv-KsNDUrpblIdq9bAYZ-6" value="" style="endArrow=classic;html=1;rounded=0;edgeStyle=entityRelationEdgeStyle;" parent="1" edge="1">
          <mxGeometry width="50" height="50" relative="1" as="geometry">
            <mxPoint x="60" y="59" as="sourcePoint" />
            <mxPoint x="70" y="129" as="targetPoint" />
          </mxGeometry>
        </mxCell>
        <mxCell id="Vv-KsNDUrpblIdq9bAYZ-8" value="Pull request" style="edgeLabel;html=1;align=center;verticalAlign=middle;resizable=0;points=[];" parent="Vv-KsNDUrpblIdq9bAYZ-6" vertex="1" connectable="0">
          <mxGeometry x="0.4267" y="4" relative="1" as="geometry">
            <mxPoint as="offset" />
          </mxGeometry>
        </mxCell>
        <mxCell id="Vv-KsNDUrpblIdq9bAYZ-15" style="edgeStyle=orthogonalEdgeStyle;rounded=0;orthogonalLoop=1;jettySize=auto;html=1;exitX=0.25;exitY=1;exitDx=0;exitDy=0;entryX=0.5;entryY=0;entryDx=0;entryDy=0;" parent="1" source="Vv-KsNDUrpblIdq9bAYZ-9" target="Vv-KsNDUrpblIdq9bAYZ-14" edge="1">
          <mxGeometry relative="1" as="geometry" />
        </mxCell>
        <mxCell id="Vv-KsNDUrpblIdq9bAYZ-17" value="Success" style="edgeLabel;html=1;align=center;verticalAlign=middle;resizable=0;points=[];" parent="Vv-KsNDUrpblIdq9bAYZ-15" vertex="1" connectable="0">
          <mxGeometry x="-0.0857" y="1" relative="1" as="geometry">
            <mxPoint as="offset" />
          </mxGeometry>
        </mxCell>
        <mxCell id="Vv-KsNDUrpblIdq9bAYZ-16" style="edgeStyle=orthogonalEdgeStyle;rounded=0;orthogonalLoop=1;jettySize=auto;html=1;exitX=0.75;exitY=1;exitDx=0;exitDy=0;entryX=0.25;entryY=0;entryDx=0;entryDy=0;" parent="1" source="Vv-KsNDUrpblIdq9bAYZ-9" target="Vv-KsNDUrpblIdq9bAYZ-13" edge="1">
          <mxGeometry relative="1" as="geometry" />
        </mxCell>
        <mxCell id="Vv-KsNDUrpblIdq9bAYZ-18" value="Success" style="edgeLabel;html=1;align=center;verticalAlign=middle;resizable=0;points=[];" parent="Vv-KsNDUrpblIdq9bAYZ-16" vertex="1" connectable="0">
          <mxGeometry x="0.0333" y="3" relative="1" as="geometry">
            <mxPoint as="offset" />
          </mxGeometry>
        </mxCell>
        <mxCell id="Vv-KsNDUrpblIdq9bAYZ-20" style="edgeStyle=orthogonalEdgeStyle;rounded=0;orthogonalLoop=1;jettySize=auto;html=1;exitX=1;exitY=0.25;exitDx=0;exitDy=0;entryX=0.25;entryY=1;entryDx=0;entryDy=0;dashed=1;" parent="1" source="Vv-KsNDUrpblIdq9bAYZ-9" target="Vv-KsNDUrpblIdq9bAYZ-19" edge="1">
          <mxGeometry relative="1" as="geometry" />
        </mxCell>
        <mxCell id="Vv-KsNDUrpblIdq9bAYZ-21" value="Upload version" style="edgeLabel;html=1;align=center;verticalAlign=middle;resizable=0;points=[];" parent="Vv-KsNDUrpblIdq9bAYZ-20" vertex="1" connectable="0">
          <mxGeometry x="0.0508" y="1" relative="1" as="geometry">
            <mxPoint x="-4" y="-17" as="offset" />
          </mxGeometry>
        </mxCell>
        <mxCell id="Vv-KsNDUrpblIdq9bAYZ-9" value="&lt;h1 style=&quot;font-size: 20px;&quot;&gt;&lt;font style=&quot;font-size: 20px;&quot;&gt;CI pipeline&lt;/font&gt;&lt;/h1&gt;&lt;p style=&quot;&quot;&gt;&lt;font style=&quot;font-size: 11px;&quot;&gt;Code, Build, Test, Release&lt;/font&gt;&lt;/p&gt;" style="text;html=1;spacing=5;spacingTop=-20;whiteSpace=wrap;overflow=hidden;rounded=0;" parent="1" vertex="1">
          <mxGeometry x="450" y="270" width="140" height="60" as="geometry" />
        </mxCell>
        <mxCell id="Vv-KsNDUrpblIdq9bAYZ-13" value="&lt;h1 style=&quot;font-size: 20px;&quot;&gt;&lt;font style=&quot;font-size: 20px;&quot;&gt;CD pipeline&lt;/font&gt;&lt;/h1&gt;&lt;p style=&quot;&quot;&gt;&lt;font style=&quot;font-size: 11px;&quot;&gt;Pull image, Manual authorization, deploy to production&lt;/font&gt;&lt;/p&gt;" style="text;html=1;spacing=5;spacingTop=-20;whiteSpace=wrap;overflow=hidden;rounded=0;" parent="1" vertex="1">
          <mxGeometry x="590" y="380" width="140" height="90" as="geometry" />
        </mxCell>
        <mxCell id="Vv-KsNDUrpblIdq9bAYZ-14" value="&lt;h1 style=&quot;font-size: 20px;&quot;&gt;&lt;font style=&quot;font-size: 20px;&quot;&gt;CDP pipeline&lt;/font&gt;&lt;/h1&gt;&lt;p style=&quot;&quot;&gt;&lt;span style=&quot;font-size: 11px;&quot;&gt;Pull image, deploy to production&lt;/span&gt;&lt;/p&gt;" style="text;html=1;spacing=5;spacingTop=-20;whiteSpace=wrap;overflow=hidden;rounded=0;" parent="1" vertex="1">
          <mxGeometry x="360" y="380" width="140" height="70" as="geometry" />
        </mxCell>
        <mxCell id="Vv-KsNDUrpblIdq9bAYZ-24" style="edgeStyle=orthogonalEdgeStyle;rounded=0;orthogonalLoop=1;jettySize=auto;html=1;exitX=1;exitY=0.25;exitDx=0;exitDy=0;entryX=1;entryY=0.5;entryDx=0;entryDy=0;dashed=1;dashPattern=1 2;" parent="1" source="Vv-KsNDUrpblIdq9bAYZ-19" target="Vv-KsNDUrpblIdq9bAYZ-13" edge="1">
          <mxGeometry relative="1" as="geometry">
            <Array as="points">
              <mxPoint x="750" y="160" />
              <mxPoint x="750" y="425" />
            </Array>
          </mxGeometry>
        </mxCell>
        <mxCell id="Vv-KsNDUrpblIdq9bAYZ-26" value="Pull requested version" style="edgeLabel;html=1;align=center;verticalAlign=middle;resizable=0;points=[];" parent="Vv-KsNDUrpblIdq9bAYZ-24" vertex="1" connectable="0">
          <mxGeometry x="0.2729" y="1" relative="1" as="geometry">
            <mxPoint x="-11" as="offset" />
          </mxGeometry>
        </mxCell>
        <mxCell id="Vv-KsNDUrpblIdq9bAYZ-27" style="edgeStyle=orthogonalEdgeStyle;rounded=0;orthogonalLoop=1;jettySize=auto;html=1;exitX=1;exitY=0.25;exitDx=0;exitDy=0;entryX=0.75;entryY=1;entryDx=0;entryDy=0;dashed=1;dashPattern=1 2;" parent="1" source="Vv-KsNDUrpblIdq9bAYZ-19" target="Vv-KsNDUrpblIdq9bAYZ-14" edge="1">
          <mxGeometry relative="1" as="geometry">
            <Array as="points">
              <mxPoint x="800" y="160" />
              <mxPoint x="800" y="500" />
              <mxPoint x="465" y="500" />
            </Array>
          </mxGeometry>
        </mxCell>
        <mxCell id="Vv-KsNDUrpblIdq9bAYZ-28" value="Pull last version" style="edgeLabel;html=1;align=center;verticalAlign=middle;resizable=0;points=[];" parent="Vv-KsNDUrpblIdq9bAYZ-27" vertex="1" connectable="0">
          <mxGeometry x="-0.1161" relative="1" as="geometry">
            <mxPoint as="offset" />
          </mxGeometry>
        </mxCell>
        <mxCell id="Vv-KsNDUrpblIdq9bAYZ-19" value="" style="shape=image;imageAspect=0;aspect=fixed;verticalLabelPosition=bottom;verticalAlign=top;image=data:image/png,iVBORw0KGgoAAAANSUhEUgAAAMAAAACZCAMAAABOg8UKAAACo1BMVEVHcEzS4P9rq/+Kw/+Yx/9/tv+Bu/9Xrf9Qof9Ypv+W0f/T6v++//9ipf8Adv8Ad/8Adv91tf/L4v8Af/8Oef8He/8Ief8Aev99uP8Eef8Ae/8BfP8Bef8Aff8EfP8Ee/8Bef+Huf9LpP9Knf+Sx//T6/+n1/+z1/+u0v+21v+z1/9+tP/b8//Q6f/H4//v+P/k9v/n9f9Yff++3P+o2/+c0/+05P+93P+32P+b2f+myv+mz/+u0f+Ww/8Dhv9EoP+Qw/8ch/8AcP95uv91r//H4v+Swf8Adf8Adf8+m/+Zyf+Fuf8ujP8Ab/8Abv9ts//J4v8Adf8Ad/8MfP9sqf+iy//Q6f/H4P9prv+m1f+w1f/A3/+Ew/9gq/8li/+pzf9zu/+dxf+Mvf8RiP8SfP80lP+kz//E4/8Acv+Kxv9+vv+s0/+PwP8ci/+XyP+Ivf8mj/8Mgf9tqP/K4v+Fvv+jyv+qz//1/P+11//0/f+Ovf88lP90rv+fxv+hzP/X8P+72/+w1f9Fl/+cyv+p0v/e7v8Abf+ZyP9Unv+t2v/F3/9hpP+Sx/+Rv/9zq/9op/+Jwv/D3//j8v8Acv9OmP9+s//6/v/z+f8aff8Aaf8ih/+Lrf+Zyf/7/f+Ctf9Qnf++3P+Ly/+oz/+k0//q9v+32v+60f+byP+PwP+33v+Bwf+W0P+Syf+j0P+73f/W6/+ezP9YoP+hz/8Agv8zkP+Zx/+72/91sf9lrf+Rz/94t/+Vxv+Lxv97t/9vr/87kv8Ygf+OxP9Jm/9PmP8AdP9Pn/95uf9gr/9+uP8FfP99u/+NxP8Be/9Zpv+LxP9oqP+Mvv9/uf9cn/8Qe/94pP8Mf/8AJf88kP99u/9fpP8fkP9kpP9Jmf8wkf+Qx/8gi/9Imv8wU0jUAAAA4XRSTlMABAUBXGL+/////1AC5f/69/+2//////r//v////v///32///+OFDbzs1nAwdtZgokKwKx////ncD/5Mrv6v//7v/1//GB3f38/8Hm//77/7z//P/p0kPU//9yS/////j/+cf///+nMvr//4zm/83s///9pf/g6haqD9X/1AbDHVi7/+qZgvj////G/pv2/v37/ZH///5M1v78//rbuMz/kP+xhDmAGoj/KwgRIRZAXfH///r/tvGy///2fTqMnq23bJvy2oj7I8Hf/FTeKSrCqHjx+lNALfv3rX7U0s5LnKa0nLvjAAASK0lEQVR4AeychXfiWB+G35CVShbaQsIWAmFcUmU67ko6W2ghY9U1+KiM1GVnGZ+prbuPu09lff+2D5IQhnMYTyicw1N9z0XuQ+69v4siR44cOXLkyPEMCMNjINshkX289nqC15CFvPFmXr5MXn5BIShkG28ZTXGKiktAZJ+A2ULLMNa3s1Og1CZhZx3ZLWBjrTmBVyEn4MzWOWBnOImsXYXsLuUQsI4MrQMk8RixaFATBcybvyBPZkHewkWgMn2DRiZHAouXLF0ms3TJcvCZ2P+y8ooEQGUillclx2qQyDjcWFGzMk7BqtVYs6ogHteuq8T6GrWxZkNZBhqQ2LjJGqdo83ps2VoUj9u2r8YOu9rqeHsnCKSGAoi5Eti11cMYJRihdjfeqfMq0eKrb8BbNiUZ/abihif1kgdFgJ8zAZfTLsEFNscEjEoUhWiP95hpOT2tkPEgluzdB5KaKwGbDCsLeJxylAWeZytBYv+BTY1NAJERAv4XFSDQ3OLwmFuXVIPIRgEe+xrbjIzRkf+ubJBtAmVoeq+IsXOMdcH7ADH3k9ivxLjAMyYxCeKDD10x6aA39L8w+PQLCC6FdmkZFUrlZGmPCdgCLhmPKfVmjkJDh1W0xQiaOrtgSLfAwUN2s4zdNv8wjnSzSuzxby9Br1ltNXf2pRZYku9ibRJ0UX8TeP23n3wCAs0bBtbFGQxjcSIOrh5C02A8DQwOj4DgE1CQcOOjo3EBmys0QJLpfXyQRxLup544VaMbHx9SBSztHRWI6Lx7q162+5jC7vWFCK8/prLmOE4s3Z2IJFaoIRorK08m0t5mUAAIFL7BMjYFrrR73RAoUkIvgf0toQUKp6JL9943F6jxvWM43XoqHms7CjFvs9qa148zLbVqrH2/EiQQwdmF5yy2OEHfaBXiRCXcJEWQGgssGfMFBImAUDRe/sHWdkFBWoW2tsdbz9VP4C1WPa1tEp/M3ybEo/dTSYDAzn6fqAqI3s/CxIgMpU46SluBfK9IczFooyMqUOdSEq3UAZGTCArFJdE6oN6p7/kcn7xpYpQTW/wpBZzG0BfvynzZ8NVXX509W1gNQHMB5dpkgeeqxHZWFuCUmEJAxrxpk9n4NWszfzM2+dln3/bO29939jvppHMrYEslIM+BDmkOqHCMJRjF4vcIPq9XcDm/+fj770BkqgCB8n6PmCTAcTZ79E9QlERcP/w4Wg4K6RPwpBYwphYAGasDtifC/vTjz18BpK4CnNwnW9IRSGzmkueAElUBHr/UyoUsJdH+/0qAgrYCQUZCZBw1MQFGQZCPgCinoCxgiZ9WFrDQUqRVAQonD8g3QSp+8P72axU0XkbPn2tX8MXqQE97nG2hw3inR209dyBaB75WU0CqA+qJf5QF+DKERx30Ewx+8H3265BGE5iklN3bhZoD7ynUX1yCpS3vqawdxoaOejU2hjGaaOxsRNfa+kQeLHMTfARRLtUGUgsEA0e/1P5eGnHhskrXFVR2JeJVoPCxuBMoV4MUrz521muIcWXn8us3DjlTCohC92hYq/5TZc37GyQu3Lx1TeH2tfIVFbevqdzZWVJxR229G+4ruXc3nm5du7cielY18/cnJiaWHXtQ09K6yZly/bEE2vo1638Elzq/eSgxNnZ+TCWakog2J1rlUyucH0sENZ9f0OawWukU3efEYPum0bBWe2sK1ae7fYKEx/gYHk9yFJ4S/cmn9QsxjCzLJY0fZxSaLjV6HPWPNOs/CFSMTzEirTmcM3n4sDEzn4/dNN268OQVRKCZwP3GKYaz6Y44NTW19fzkwx2jJ/cBBDQUeJQOgZ7ai4014ycb9vEjJAwUskyAY396VH6iohASBiDbBMSi7VcRxU24QUImm+aA0zO98TjKDARkNBYYnzLqLCB+PXkHBHRArgMhj74CnLH70Qj0woCZ/HbapidMaXEFKP0E1hzwiTYdYa3zZ8BDL3iU93r1FHDS1oI+EHo+of3Z13oKiKbaS9AREiPzzBYdD4C/Z3wRDLoKjIdYTr8Z7CguBwEdcWNnp8DY9RpAQuss9IV04/e2gF4lwNX9fjUo6EoEM3kmncaQ6OhoBgF9IXBhu4vVYwzZLe2da9Lw1BhG3t9qdOqygv6xDCChP8sWuBib5gSF1vUAD90hcO/PKUaH23/BYYBAGqAw/NBHaz7+NzdWwYD0CFT9Zde4GltMeR/cB4/04MaSekHUdvzkHwZ4pE1g6Jdul3a1gLMUtR4GypA2yrCzZorWykAMGFvk9Sd98Fj9h9WiSTVzWoTpHWcqwSO9AsdXhTQpBixjDb0RBkkhnciPr3S7Xn0iWwLSY7e3kHZ43B8PucRXG0W0Rah91FWFCOaASNSgW2CcL126nLTxa3PxQDlAAHNk0LjAxbAvO/hLrT3fdEwABh5zBIFF6+unXC/1SCPjck3lrWyqLEMEcwcBDBeEBIv4YgocHQy2H2ptPNkMgALm1qB5b7HZZ6Rp53MOfCfNGD1e8/aPll0BCJLE3EKRwPIbD7daY89w2Z/ReTvHsWzAZK17WDy6Wp5FGQAPDJ0ZLW5zuNjSp84GjillXQ7H0QMdR9Y0VwEGN4mMgOSBwq7Ghflb7e2m4A9BUaRpLgFNi2Iw+INoMrXbD9XWNw78vboKAEkic6B4oPrm8sGDnZvtP/q8X3/t9xvj+P1ff+31/fijufaPPzcOLvtn0RAA3k2RyCiICKKMnPn34OgbBx4uOBoKTdfV1U1PT4eOnjr/8I+3bzza9d8nq4cQoyxCIQOheGlIV+0L980Ont5yRGHLxtODsyXhffuOI4qbjJ4MmQsZMcgrUzIEYhgMERKZD0XwKbrJ8wSFHDly5MiRI0eOHOmGNBj45/8ULRKZBin/0vik/6fljJ+aONM4/t1dmhkxTWK3N8lsds54qL1hU5Gt1uasGRukRRS9gHKepjg1Ikk8PXS4UgwxNlLUg2JvgA7HOCCUVkkthV44GxAt0gYvVgBiS6xS70+5fTdZOKpRZKbvb88332yeT5533/d5WeCXD84hPs0kLjr/L258MwxhQdaL39ysfHYCBsh6aoIiEDQvprwCDpQ2Xl4KaiGJjFi3Dj37QzoRn4Tzs54MzoB6v2K/fxF1oNHWavt6NYSFAHzLl3wH+tlrnB6xpD35fRT2vbrMMboIAAG3Wmv3LBDgP1z5YgA+/ygavp36E5S/VY84rvzaAN8vHiAN1JMrULzuGQEYtSgN9TwARpTH43zMLwEYxae8TT0XMYBaudSvBeBDYgTnAGarQIuP+iDOBxCINN8izK21Aq1ocwBBH03TvtnP8MlASmBOAlCSg/bRC/lZYVX36J07o91AmwLgQ6WkjY75AUrx+UDJvmxAUAASetXYKMhQi6gckyxja4kDjPTCGIC1Y4lLCQrAbLIKZoJfCZIACrf6qStzZpvBW+oNGK6vvVoiA6gZXNu8J1DqbT/+3RdyLiBUt8d3Et/lCUBUAIgerG7PGIZIEhze9bVk6TvzHHmBxuDbGUOVQ8193pC3rvkOaOUm7hmcnJz8pCv5sHJ48BSULNUkIACjWDo4eWlwci+I64k749Ayu8uk1RbuKJ+aatkhAQRh7m81ugq12ryC8qmLYBiAQtmJEOvSEh/7fBqSAAyNrMMjrI6bgiCieHyrPU+y5DWy1d2kilv++VbfrkAB0bSNZ69AkABUnpfyK9I7OjosZ04BgoDDFsvR5JyjsMFiyce+dRFPT82Z9HBHRzh8QXKlJmCAm6WuGKexWnlexxuLXBIA1NUhjU7DO618oY5fUg8aFLqbj0iB0WnlinRs3xeJZTQIrL58pCim8Q7BhzXLjDotzzo5jdbknLoC+A0FLSajzcRZnayxYOe1BIDK7Y5EPQbVQCS8ETCj0+25NQvwmjvnKHrWRVQr3ZEBg8ETHXC7X/GnJhAxFNIWOkdev5v2ZhOnX36QVAAHjmi13obdP9zd1Neqd32diyCq3uH0mkDDxI9320IlteyoVAFpI0Nl/zSvtxnrLoECdnExo7d58sdOVcZbem6qG/7mgoO/1bcGtt398bktZ+vBkCnkUalU4c2n392U7oh3bDTTONThmAN43+25kEUAPFH3+t53T69Mj8Qte+FLufeu3ukqPLu7kgT7vuJfLCIAmU2FeaH8j4n2cvUxPf98FTBYquVDh7KJdu1ec1uQVOAnpN3fatcXvH0gCBHUVS7Gj2zIAtD1Sh+nd74pA+jZB2Qag6KgAFRsq6kChdw33XHLRTwKYJYAKqKOkx9UMuh6Yb0nWrE6RQkYZFU3xqy7GTCCKODjywUtZArdc+q85EYlmr/ZqNs6Sb5dbcZzkiY/aFkqAX9fZDzR/7ZGaw9NpVWRqXxlpyvv+AdIjNUBjb2v+HNpCrEz5Eq0KKcvA0Td74GRRGRtduT0lqHzcQAq90sUQHy5K+MduyGkak3qNJo6P4gXQeQuc7l2XlvVvMPe0AUz0cz4dHtRwTvmfdO8ZltV4jKiDxDwPWvybne1cCP5xSQUkeaM8b1LVyfGqqtOW98lylCgDXQiOG8nVuWcSzRqQVx0D6w79XgAw5mlMDOAEMRr4YH1a0Cl2Nm3HyzYn5WI1PDvMtbu6bn2O9v2k3Oz7jzf2Iz6DJt3cjYTSmQkgOUm/YsHNVuAoPx9vsv+hmvakxw7243a8p/MhgKuaRWY+a2EuwZMMnBHwz8/FmDAvTGZgYCulZH04cd3LRReCOisPygv+jBeIgH8UKoL/X12L618p1FzHkNeW8YlxUd0UgFe4yw8yI6DeEWcYE3L7bXKcJl0VgJgnHq0F/oZdCLwfxVJARBx/wlq5T29hnAKADVOeU2aTqU6NMZba1XFEsB2BQCgVtg1x2WASfjmAzi3TfS59KED5EIi/saaOK51drzBLpkkFZjKekwzJ/w/ALmJlaYkAVD86sAcAJjUAAzo6aLGy0yipGZ8WVFrvYG0ZbaSWwgmEcuml+84g5o+m/O6UhWRIVOIO3ITOJQhLbj9ZklDJ1vErzjQdoCMNjI64W+WAMypulEF4P1wzqZsqBMp9HdIy2j2/oh7oxQkXNkfppxCDD5r2MGHMhGkADODS15b+T347/P89jFZo2jkh3TOCRQ3cS5Dt0xFybRKKzFRqrUtSUNQxGhAa9yGeWNhAKcccYuUgjyHs08bPBf8qA9HPlwlE6iz8Er6wLpUv6NPY9Kr01x+OdEz/nHaXtieC0x4dWxDmaSJwLDXlBe6BtziWoz3zaDJErRh/94kQBC4Wqqzt25AEP4GPma9DgTpILLSXu+Bb4EA+IsnpzcbQVFSD1viDgng03Dc8Y8u+NSSlOmOOC6ketAsYO0WY8x+vr4L+PLkeXsLfwIivtzTqD82NfixpE14jbpyMp/KDLUtJQ/SABRfbefqPkueyNTAvZIYOy0VDHf+pYmV35ASQmZ1wFkNYaEAmelxx1fdALJrKqIqz4VK4KQjXnGuGMDaiysrouHMlCcICqPTxpirfWpmpsHqitkriiFSuN1nj9nbj888OH4kT89tWQuRweEltTG2aebBTF+JVuscTQJADdzgY8YRQtBfatM7Q5KlzqjjZhYMIKBe+sJXHP39xs3pUVUCYNWfc+KejyTptCWiCg+DesJhZnSELbS9dYyt1XHsiqUQiHa7TlNocx0z1to0b6wgTSQDHF7Gm2wse8xls5ffovBtYeJQLwLNdt2x+xAYauNZjc7FskabTrN1SAaoNT0CEJcAaAVgILGmToSjOQ6HIyfi8MQ9RyvJuf6cQxUhUrTiifkDNK5sawo4rdaSwNnrVRASVKdWNAWOWK3lgbP15HIgBGXjAa9V8rXX5QOYsm6dlBMRsMZgLR+HoIb59vOBUqvVGWpquESqVrXJ6txCze9dejssyqEVlec61vfIx49DK8NSgx3+6A//DltOQgAFf40spf+1dy+opxzlsWbi4cOHNw/5AWpWy5W1mlWzx0MG6JG192Qt98Z3s/9sas29m59LgRrA3uuS5fqGKuIX0HPvv2NQz/uwsv5hCErQIwUMQUHlxfr6+kM9yKqZkFccSpI2EKkbTz0c/6+9sjiAKISBKGSu00lu6Y/a1/DV49q8L0AMBwyD4MilW5kPodebA2MjtQIcXRjnlF0xifpV2NVgM0MXJ+ds3ktysRMFm8wucJWx2l1kp8xqi80ttyLNIu2w+L0Cco0MK3kTRfochBBCCCGEOAIpdv50KIkXEgAAAABJRU5ErkJggg==;" parent="1" vertex="1">
          <mxGeometry x="620" y="140" width="100.39" height="80" as="geometry" />
        </mxCell>
        <mxCell id="Vv-KsNDUrpblIdq9bAYZ-30" value="" style="rounded=0;whiteSpace=wrap;html=1;" parent="1" vertex="1">
          <mxGeometry x="20" y="360" width="260" height="180" as="geometry" />
        </mxCell>
        <mxCell id="Vv-KsNDUrpblIdq9bAYZ-32" value="" style="shape=image;imageAspect=0;aspect=fixed;verticalLabelPosition=bottom;verticalAlign=top;image=https://images.vexels.com/media/users/3/222601/isolated/preview/c06ee6af4263551a5279e6cdb038f279-engranajes-girando-engranajes-de-icono-de-trazo-by-vexels.png;" parent="1" vertex="1">
          <mxGeometry x="50" y="390" width="40" height="40" as="geometry" />
        </mxCell>
        <mxCell id="Vv-KsNDUrpblIdq9bAYZ-33" value="&lt;font style=&quot;font-size: 10px;&quot;&gt;Self-Hosted Runner&lt;/font&gt;" style="text;html=1;align=center;verticalAlign=middle;whiteSpace=wrap;rounded=0;" parent="1" vertex="1">
          <mxGeometry x="40" y="430" width="60" height="30" as="geometry" />
        </mxCell>
        <mxCell id="Vv-KsNDUrpblIdq9bAYZ-34" value="&lt;b&gt;Vagrant VM&lt;/b&gt;" style="text;html=1;align=center;verticalAlign=middle;whiteSpace=wrap;rounded=0;" parent="1" vertex="1">
          <mxGeometry x="20" y="540" width="90" height="30" as="geometry" />
        </mxCell>
        <mxCell id="Vv-KsNDUrpblIdq9bAYZ-35" value="" style="shape=image;imageAspect=0;aspect=fixed;verticalLabelPosition=bottom;verticalAlign=top;image=https://miro.medium.com/v2/resize:fit:1200/1*VBsAVq_YVh2dqz03WeaJcA.png;strokeWidth=1;imageBorder=default;" parent="1" vertex="1">
          <mxGeometry x="110" y="220" width="230" height="61.92" as="geometry" />
        </mxCell>
        <mxCell id="Vv-KsNDUrpblIdq9bAYZ-42" value="" style="rounded=0;whiteSpace=wrap;html=1;" parent="1" vertex="1">
          <mxGeometry x="170" y="460" width="80" height="60" as="geometry" />
        </mxCell>
        <mxCell id="Vv-KsNDUrpblIdq9bAYZ-46" style="edgeStyle=orthogonalEdgeStyle;rounded=0;orthogonalLoop=1;jettySize=auto;html=1;exitX=0.25;exitY=1;exitDx=0;exitDy=0;entryX=0.75;entryY=1;entryDx=0;entryDy=0;" parent="1" source="Vv-KsNDUrpblIdq9bAYZ-13" target="Vv-KsNDUrpblIdq9bAYZ-42" edge="1">
          <mxGeometry relative="1" as="geometry">
            <Array as="points">
              <mxPoint x="625" y="560" />
              <mxPoint x="230" y="560" />
            </Array>
          </mxGeometry>
        </mxCell>
        <mxCell id="Vv-KsNDUrpblIdq9bAYZ-51" value="Deploy" style="edgeLabel;html=1;align=center;verticalAlign=middle;resizable=0;points=[];" parent="Vv-KsNDUrpblIdq9bAYZ-46" vertex="1" connectable="0">
          <mxGeometry x="0.2229" relative="1" as="geometry">
            <mxPoint as="offset" />
          </mxGeometry>
        </mxCell>
        <mxCell id="Vv-KsNDUrpblIdq9bAYZ-45" style="edgeStyle=orthogonalEdgeStyle;rounded=0;orthogonalLoop=1;jettySize=auto;html=1;exitX=0.25;exitY=1;exitDx=0;exitDy=0;entryX=1;entryY=0.25;entryDx=0;entryDy=0;" parent="1" source="Vv-KsNDUrpblIdq9bAYZ-14" target="Vv-KsNDUrpblIdq9bAYZ-42" edge="1">
          <mxGeometry relative="1" as="geometry" />
        </mxCell>
        <mxCell id="Vv-KsNDUrpblIdq9bAYZ-50" value="Deploy" style="edgeLabel;html=1;align=center;verticalAlign=middle;resizable=0;points=[];" parent="Vv-KsNDUrpblIdq9bAYZ-45" vertex="1" connectable="0">
          <mxGeometry x="0.2118" y="1" relative="1" as="geometry">
            <mxPoint as="offset" />
          </mxGeometry>
        </mxCell>
        <mxCell id="Vv-KsNDUrpblIdq9bAYZ-47" value="" style="shape=image;imageAspect=0;aspect=fixed;verticalLabelPosition=bottom;verticalAlign=top;image=https://th.bing.com/th/id/OIP.iNqJzkyTYb8fRrOce2YM9gAAAA?rs=1&amp;pid=ImgDetMain;" parent="1" vertex="1">
          <mxGeometry x="21" y="510" width="29" height="30" as="geometry" />
        </mxCell>
        <mxCell id="Vv-KsNDUrpblIdq9bAYZ-48" value="" style="shape=image;imageAspect=0;aspect=fixed;verticalLabelPosition=bottom;verticalAlign=top;image=https://th.bing.com/th/id/R.d3d59db6df63c9f8ab243ef12f35611f?rik=r0A1VOEMUU1ryA&amp;pid=ImgRaw&amp;r=0;" parent="1" vertex="1">
          <mxGeometry x="182.16" y="470" width="55.68" height="40" as="geometry" />
        </mxCell>
        <mxCell id="Vv-KsNDUrpblIdq9bAYZ-49" value="&lt;font style=&quot;font-size: 9px;&quot;&gt;Docker container&lt;/font&gt;" style="text;html=1;align=center;verticalAlign=middle;whiteSpace=wrap;rounded=0;" parent="1" vertex="1">
          <mxGeometry x="182.16" y="430" width="60" height="30" as="geometry" />
        </mxCell>
        <mxCell id="Vv-KsNDUrpblIdq9bAYZ-58" value="" style="endArrow=classic;startArrow=classic;html=1;rounded=0;entryX=-0.043;entryY=0.283;entryDx=0;entryDy=0;entryPerimeter=0;exitX=1;exitY=0.25;exitDx=0;exitDy=0;" parent="1" source="Vv-KsNDUrpblIdq9bAYZ-35" target="Vv-KsNDUrpblIdq9bAYZ-9" edge="1">
          <mxGeometry width="50" height="50" relative="1" as="geometry">
            <mxPoint x="370" y="275.96000000000004" as="sourcePoint" />
            <mxPoint x="420" y="225.96" as="targetPoint" />
            <Array as="points">
              <mxPoint x="380" y="235" />
              <mxPoint x="380" y="287" />
            </Array>
          </mxGeometry>
        </mxCell>
        <mxCell id="Vv-KsNDUrpblIdq9bAYZ-60" value="" style="endArrow=classic;startArrow=classic;html=1;rounded=0;entryX=0.122;entryY=1.098;entryDx=0;entryDy=0;entryPerimeter=0;exitX=0.25;exitY=0;exitDx=0;exitDy=0;" parent="1" source="Vv-KsNDUrpblIdq9bAYZ-32" target="Vv-KsNDUrpblIdq9bAYZ-35" edge="1">
          <mxGeometry width="50" height="50" relative="1" as="geometry">
            <mxPoint x="110" y="350" as="sourcePoint" />
            <mxPoint x="160" y="300" as="targetPoint" />
            <Array as="points">
              <mxPoint x="60" y="320" />
              <mxPoint x="138" y="320" />
            </Array>
          </mxGeometry>
        </mxCell>
      </root>
    </mxGraphModel>
  </diagram>
  <diagram name="Copy of Page-1" id="uSMjlR_4hZUlDOg_qKVg">
    <mxGraphModel dx="1002" dy="569" grid="1" gridSize="10" guides="1" tooltips="1" connect="1" arrows="1" fold="1" page="1" pageScale="1" pageWidth="850" pageHeight="1100" math="0" shadow="0">
      <root>
        <mxCell id="Aneuq1_yQKHBpm85li8e-0" />
        <mxCell id="Aneuq1_yQKHBpm85li8e-1" parent="Aneuq1_yQKHBpm85li8e-0" />
        <mxCell id="Aneuq1_yQKHBpm85li8e-2" value="" style="endArrow=none;html=1;rounded=0;strokeWidth=4;" edge="1" parent="Aneuq1_yQKHBpm85li8e-1">
          <mxGeometry width="50" height="50" relative="1" as="geometry">
            <mxPoint x="20" y="90" as="sourcePoint" />
            <mxPoint x="210" y="90" as="targetPoint" />
          </mxGeometry>
        </mxCell>
        <mxCell id="Aneuq1_yQKHBpm85li8e-3" value="" style="endArrow=none;html=1;rounded=0;strokeWidth=4;" edge="1" parent="Aneuq1_yQKHBpm85li8e-1">
          <mxGeometry width="50" height="50" relative="1" as="geometry">
            <mxPoint x="20" y="170" as="sourcePoint" />
            <mxPoint x="210" y="170" as="targetPoint" />
          </mxGeometry>
        </mxCell>
        <mxCell id="r5aUWkCWSRthDvzB2NxX-8" style="edgeStyle=orthogonalEdgeStyle;rounded=0;orthogonalLoop=1;jettySize=auto;html=1;exitX=1;exitY=0.5;exitDx=0;exitDy=0;entryX=0.25;entryY=0;entryDx=0;entryDy=0;" edge="1" parent="Aneuq1_yQKHBpm85li8e-1" source="Aneuq1_yQKHBpm85li8e-4" target="Aneuq1_yQKHBpm85li8e-15">
          <mxGeometry relative="1" as="geometry" />
        </mxCell>
        <mxCell id="Aneuq1_yQKHBpm85li8e-4" value="Feature branch" style="text;html=1;align=center;verticalAlign=middle;whiteSpace=wrap;rounded=0;" vertex="1" parent="Aneuq1_yQKHBpm85li8e-1">
          <mxGeometry x="70" y="60" width="90" height="30" as="geometry" />
        </mxCell>
        <mxCell id="Aneuq1_yQKHBpm85li8e-6" value="Main branch" style="text;html=1;align=center;verticalAlign=middle;whiteSpace=wrap;rounded=0;" vertex="1" parent="Aneuq1_yQKHBpm85li8e-1">
          <mxGeometry x="70" y="140" width="90" height="30" as="geometry" />
        </mxCell>
        <mxCell id="Aneuq1_yQKHBpm85li8e-13" style="edgeStyle=orthogonalEdgeStyle;rounded=0;orthogonalLoop=1;jettySize=auto;html=1;exitX=1;exitY=0.25;exitDx=0;exitDy=0;entryX=0.25;entryY=1;entryDx=0;entryDy=0;dashed=1;" edge="1" parent="Aneuq1_yQKHBpm85li8e-1" source="Aneuq1_yQKHBpm85li8e-15" target="Aneuq1_yQKHBpm85li8e-22">
          <mxGeometry relative="1" as="geometry" />
        </mxCell>
        <mxCell id="Aneuq1_yQKHBpm85li8e-14" value="Upload version" style="edgeLabel;html=1;align=center;verticalAlign=middle;resizable=0;points=[];" vertex="1" connectable="0" parent="Aneuq1_yQKHBpm85li8e-13">
          <mxGeometry x="0.0508" y="1" relative="1" as="geometry">
            <mxPoint x="-4" y="-17" as="offset" />
          </mxGeometry>
        </mxCell>
        <mxCell id="r5aUWkCWSRthDvzB2NxX-4" style="edgeStyle=orthogonalEdgeStyle;rounded=0;orthogonalLoop=1;jettySize=auto;html=1;exitX=0.25;exitY=1;exitDx=0;exitDy=0;entryX=0.5;entryY=0;entryDx=0;entryDy=0;startArrow=classic;startFill=1;" edge="1" parent="Aneuq1_yQKHBpm85li8e-1" source="Aneuq1_yQKHBpm85li8e-15" target="Aneuq1_yQKHBpm85li8e-27">
          <mxGeometry relative="1" as="geometry" />
        </mxCell>
        <mxCell id="Aneuq1_yQKHBpm85li8e-15" value="&lt;h1 style=&quot;font-size: 20px;&quot;&gt;&lt;font style=&quot;font-size: 20px;&quot;&gt;CI pipeline&lt;/font&gt;&lt;/h1&gt;&lt;p style=&quot;&quot;&gt;&lt;font style=&quot;font-size: 11px;&quot;&gt;Code, Build, Test, Release&lt;/font&gt;&lt;/p&gt;" style="text;html=1;spacing=5;spacingTop=-20;whiteSpace=wrap;overflow=hidden;rounded=0;" vertex="1" parent="Aneuq1_yQKHBpm85li8e-1">
          <mxGeometry x="290" y="120" width="140" height="60" as="geometry" />
        </mxCell>
        <mxCell id="Aneuq1_yQKHBpm85li8e-22" value="" style="shape=image;imageAspect=0;aspect=fixed;verticalLabelPosition=bottom;verticalAlign=top;image=data:image/png,iVBORw0KGgoAAAANSUhEUgAAAMAAAACZCAMAAABOg8UKAAACo1BMVEVHcEzS4P9rq/+Kw/+Yx/9/tv+Bu/9Xrf9Qof9Ypv+W0f/T6v++//9ipf8Adv8Ad/8Adv91tf/L4v8Af/8Oef8He/8Ief8Aev99uP8Eef8Ae/8BfP8Bef8Aff8EfP8Ee/8Bef+Huf9LpP9Knf+Sx//T6/+n1/+z1/+u0v+21v+z1/9+tP/b8//Q6f/H4//v+P/k9v/n9f9Yff++3P+o2/+c0/+05P+93P+32P+b2f+myv+mz/+u0f+Ww/8Dhv9EoP+Qw/8ch/8AcP95uv91r//H4v+Swf8Adf8Adf8+m/+Zyf+Fuf8ujP8Ab/8Abv9ts//J4v8Adf8Ad/8MfP9sqf+iy//Q6f/H4P9prv+m1f+w1f/A3/+Ew/9gq/8li/+pzf9zu/+dxf+Mvf8RiP8SfP80lP+kz//E4/8Acv+Kxv9+vv+s0/+PwP8ci/+XyP+Ivf8mj/8Mgf9tqP/K4v+Fvv+jyv+qz//1/P+11//0/f+Ovf88lP90rv+fxv+hzP/X8P+72/+w1f9Fl/+cyv+p0v/e7v8Abf+ZyP9Unv+t2v/F3/9hpP+Sx/+Rv/9zq/9op/+Jwv/D3//j8v8Acv9OmP9+s//6/v/z+f8aff8Aaf8ih/+Lrf+Zyf/7/f+Ctf9Qnf++3P+Ly/+oz/+k0//q9v+32v+60f+byP+PwP+33v+Bwf+W0P+Syf+j0P+73f/W6/+ezP9YoP+hz/8Agv8zkP+Zx/+72/91sf9lrf+Rz/94t/+Vxv+Lxv97t/9vr/87kv8Ygf+OxP9Jm/9PmP8AdP9Pn/95uf9gr/9+uP8FfP99u/+NxP8Be/9Zpv+LxP9oqP+Mvv9/uf9cn/8Qe/94pP8Mf/8AJf88kP99u/9fpP8fkP9kpP9Jmf8wkf+Qx/8gi/9Imv8wU0jUAAAA4XRSTlMABAUBXGL+/////1AC5f/69/+2//////r//v////v///32///+OFDbzs1nAwdtZgokKwKx////ncD/5Mrv6v//7v/1//GB3f38/8Hm//77/7z//P/p0kPU//9yS/////j/+cf///+nMvr//4zm/83s///9pf/g6haqD9X/1AbDHVi7/+qZgvj////G/pv2/v37/ZH///5M1v78//rbuMz/kP+xhDmAGoj/KwgRIRZAXfH///r/tvGy///2fTqMnq23bJvy2oj7I8Hf/FTeKSrCqHjx+lNALfv3rX7U0s5LnKa0nLvjAAASK0lEQVR4AeychXfiWB+G35CVShbaQsIWAmFcUmU67ko6W2ghY9U1+KiM1GVnGZ+prbuPu09lff+2D5IQhnMYTyicw1N9z0XuQ+69v4siR44cOXLkyPEMCMNjINshkX289nqC15CFvPFmXr5MXn5BIShkG28ZTXGKiktAZJ+A2ULLMNa3s1Og1CZhZx3ZLWBjrTmBVyEn4MzWOWBnOImsXYXsLuUQsI4MrQMk8RixaFATBcybvyBPZkHewkWgMn2DRiZHAouXLF0ms3TJcvCZ2P+y8ooEQGUillclx2qQyDjcWFGzMk7BqtVYs6ogHteuq8T6GrWxZkNZBhqQ2LjJGqdo83ps2VoUj9u2r8YOu9rqeHsnCKSGAoi5Eti11cMYJRihdjfeqfMq0eKrb8BbNiUZ/abihif1kgdFgJ8zAZfTLsEFNscEjEoUhWiP95hpOT2tkPEgluzdB5KaKwGbDCsLeJxylAWeZytBYv+BTY1NAJERAv4XFSDQ3OLwmFuXVIPIRgEe+xrbjIzRkf+ubJBtAmVoeq+IsXOMdcH7ADH3k9ivxLjAMyYxCeKDD10x6aA39L8w+PQLCC6FdmkZFUrlZGmPCdgCLhmPKfVmjkJDh1W0xQiaOrtgSLfAwUN2s4zdNv8wjnSzSuzxby9Br1ltNXf2pRZYku9ibRJ0UX8TeP23n3wCAs0bBtbFGQxjcSIOrh5C02A8DQwOj4DgE1CQcOOjo3EBmys0QJLpfXyQRxLup544VaMbHx9SBSztHRWI6Lx7q162+5jC7vWFCK8/prLmOE4s3Z2IJFaoIRorK08m0t5mUAAIFL7BMjYFrrR73RAoUkIvgf0toQUKp6JL9943F6jxvWM43XoqHms7CjFvs9qa148zLbVqrH2/EiQQwdmF5yy2OEHfaBXiRCXcJEWQGgssGfMFBImAUDRe/sHWdkFBWoW2tsdbz9VP4C1WPa1tEp/M3ybEo/dTSYDAzn6fqAqI3s/CxIgMpU46SluBfK9IczFooyMqUOdSEq3UAZGTCArFJdE6oN6p7/kcn7xpYpQTW/wpBZzG0BfvynzZ8NVXX509W1gNQHMB5dpkgeeqxHZWFuCUmEJAxrxpk9n4NWszfzM2+dln3/bO29939jvppHMrYEslIM+BDmkOqHCMJRjF4vcIPq9XcDm/+fj770BkqgCB8n6PmCTAcTZ79E9QlERcP/w4Wg4K6RPwpBYwphYAGasDtifC/vTjz18BpK4CnNwnW9IRSGzmkueAElUBHr/UyoUsJdH+/0qAgrYCQUZCZBw1MQFGQZCPgCinoCxgiZ9WFrDQUqRVAQonD8g3QSp+8P72axU0XkbPn2tX8MXqQE97nG2hw3inR209dyBaB75WU0CqA+qJf5QF+DKERx30Ewx+8H3265BGE5iklN3bhZoD7ynUX1yCpS3vqawdxoaOejU2hjGaaOxsRNfa+kQeLHMTfARRLtUGUgsEA0e/1P5eGnHhskrXFVR2JeJVoPCxuBMoV4MUrz521muIcWXn8us3DjlTCohC92hYq/5TZc37GyQu3Lx1TeH2tfIVFbevqdzZWVJxR229G+4ruXc3nm5du7cielY18/cnJiaWHXtQ09K6yZly/bEE2vo1638Elzq/eSgxNnZ+TCWakog2J1rlUyucH0sENZ9f0OawWukU3efEYPum0bBWe2sK1ae7fYKEx/gYHk9yFJ4S/cmn9QsxjCzLJY0fZxSaLjV6HPWPNOs/CFSMTzEirTmcM3n4sDEzn4/dNN268OQVRKCZwP3GKYaz6Y44NTW19fzkwx2jJ/cBBDQUeJQOgZ7ai4014ycb9vEjJAwUskyAY396VH6iohASBiDbBMSi7VcRxU24QUImm+aA0zO98TjKDARkNBYYnzLqLCB+PXkHBHRArgMhj74CnLH70Qj0woCZ/HbapidMaXEFKP0E1hzwiTYdYa3zZ8BDL3iU93r1FHDS1oI+EHo+of3Z13oKiKbaS9AREiPzzBYdD4C/Z3wRDLoKjIdYTr8Z7CguBwEdcWNnp8DY9RpAQuss9IV04/e2gF4lwNX9fjUo6EoEM3kmncaQ6OhoBgF9IXBhu4vVYwzZLe2da9Lw1BhG3t9qdOqygv6xDCChP8sWuBib5gSF1vUAD90hcO/PKUaH23/BYYBAGqAw/NBHaz7+NzdWwYD0CFT9Zde4GltMeR/cB4/04MaSekHUdvzkHwZ4pE1g6Jdul3a1gLMUtR4GypA2yrCzZorWykAMGFvk9Sd98Fj9h9WiSTVzWoTpHWcqwSO9AsdXhTQpBixjDb0RBkkhnciPr3S7Xn0iWwLSY7e3kHZ43B8PucRXG0W0Rah91FWFCOaASNSgW2CcL126nLTxa3PxQDlAAHNk0LjAxbAvO/hLrT3fdEwABh5zBIFF6+unXC/1SCPjck3lrWyqLEMEcwcBDBeEBIv4YgocHQy2H2ptPNkMgALm1qB5b7HZZ6Rp53MOfCfNGD1e8/aPll0BCJLE3EKRwPIbD7daY89w2Z/ReTvHsWzAZK17WDy6Wp5FGQAPDJ0ZLW5zuNjSp84GjillXQ7H0QMdR9Y0VwEGN4mMgOSBwq7Ghflb7e2m4A9BUaRpLgFNi2Iw+INoMrXbD9XWNw78vboKAEkic6B4oPrm8sGDnZvtP/q8X3/t9xvj+P1ff+31/fijufaPPzcOLvtn0RAA3k2RyCiICKKMnPn34OgbBx4uOBoKTdfV1U1PT4eOnjr/8I+3bzza9d8nq4cQoyxCIQOheGlIV+0L980Ont5yRGHLxtODsyXhffuOI4qbjJ4MmQsZMcgrUzIEYhgMERKZD0XwKbrJ8wSFHDly5MiRI0eOHOmGNBj45/8ULRKZBin/0vik/6fljJ+aONM4/t1dmhkxTWK3N8lsds54qL1hU5Gt1uasGRukRRS9gHKepjg1Ikk8PXS4UgwxNlLUg2JvgA7HOCCUVkkthV44GxAt0gYvVgBiS6xS70+5fTdZOKpRZKbvb88332yeT5533/d5WeCXD84hPs0kLjr/L258MwxhQdaL39ysfHYCBsh6aoIiEDQvprwCDpQ2Xl4KaiGJjFi3Dj37QzoRn4Tzs54MzoB6v2K/fxF1oNHWavt6NYSFAHzLl3wH+tlrnB6xpD35fRT2vbrMMboIAAG3Wmv3LBDgP1z5YgA+/ygavp36E5S/VY84rvzaAN8vHiAN1JMrULzuGQEYtSgN9TwARpTH43zMLwEYxae8TT0XMYBaudSvBeBDYgTnAGarQIuP+iDOBxCINN8izK21Aq1ocwBBH03TvtnP8MlASmBOAlCSg/bRC/lZYVX36J07o91AmwLgQ6WkjY75AUrx+UDJvmxAUAASetXYKMhQi6gckyxja4kDjPTCGIC1Y4lLCQrAbLIKZoJfCZIACrf6qStzZpvBW+oNGK6vvVoiA6gZXNu8J1DqbT/+3RdyLiBUt8d3Et/lCUBUAIgerG7PGIZIEhze9bVk6TvzHHmBxuDbGUOVQ8193pC3rvkOaOUm7hmcnJz8pCv5sHJ48BSULNUkIACjWDo4eWlwci+I64k749Ayu8uk1RbuKJ+aatkhAQRh7m81ugq12ryC8qmLYBiAQtmJEOvSEh/7fBqSAAyNrMMjrI6bgiCieHyrPU+y5DWy1d2kilv++VbfrkAB0bSNZ69AkABUnpfyK9I7OjosZ04BgoDDFsvR5JyjsMFiyce+dRFPT82Z9HBHRzh8QXKlJmCAm6WuGKexWnlexxuLXBIA1NUhjU7DO618oY5fUg8aFLqbj0iB0WnlinRs3xeJZTQIrL58pCim8Q7BhzXLjDotzzo5jdbknLoC+A0FLSajzcRZnayxYOe1BIDK7Y5EPQbVQCS8ETCj0+25NQvwmjvnKHrWRVQr3ZEBg8ETHXC7X/GnJhAxFNIWOkdev5v2ZhOnX36QVAAHjmi13obdP9zd1Neqd32diyCq3uH0mkDDxI9320IlteyoVAFpI0Nl/zSvtxnrLoECdnExo7d58sdOVcZbem6qG/7mgoO/1bcGtt398bktZ+vBkCnkUalU4c2n392U7oh3bDTTONThmAN43+25kEUAPFH3+t53T69Mj8Qte+FLufeu3ukqPLu7kgT7vuJfLCIAmU2FeaH8j4n2cvUxPf98FTBYquVDh7KJdu1ec1uQVOAnpN3fatcXvH0gCBHUVS7Gj2zIAtD1Sh+nd74pA+jZB2Qag6KgAFRsq6kChdw33XHLRTwKYJYAKqKOkx9UMuh6Yb0nWrE6RQkYZFU3xqy7GTCCKODjywUtZArdc+q85EYlmr/ZqNs6Sb5dbcZzkiY/aFkqAX9fZDzR/7ZGaw9NpVWRqXxlpyvv+AdIjNUBjb2v+HNpCrEz5Eq0KKcvA0Td74GRRGRtduT0lqHzcQAq90sUQHy5K+MduyGkak3qNJo6P4gXQeQuc7l2XlvVvMPe0AUz0cz4dHtRwTvmfdO8ZltV4jKiDxDwPWvybne1cCP5xSQUkeaM8b1LVyfGqqtOW98lylCgDXQiOG8nVuWcSzRqQVx0D6w79XgAw5mlMDOAEMRr4YH1a0Cl2Nm3HyzYn5WI1PDvMtbu6bn2O9v2k3Oz7jzf2Iz6DJt3cjYTSmQkgOUm/YsHNVuAoPx9vsv+hmvakxw7243a8p/MhgKuaRWY+a2EuwZMMnBHwz8/FmDAvTGZgYCulZH04cd3LRReCOisPygv+jBeIgH8UKoL/X12L618p1FzHkNeW8YlxUd0UgFe4yw8yI6DeEWcYE3L7bXKcJl0VgJgnHq0F/oZdCLwfxVJARBx/wlq5T29hnAKADVOeU2aTqU6NMZba1XFEsB2BQCgVtg1x2WASfjmAzi3TfS59KED5EIi/saaOK51drzBLpkkFZjKekwzJ/w/ALmJlaYkAVD86sAcAJjUAAzo6aLGy0yipGZ8WVFrvYG0ZbaSWwgmEcuml+84g5o+m/O6UhWRIVOIO3ITOJQhLbj9ZklDJ1vErzjQdoCMNjI64W+WAMypulEF4P1wzqZsqBMp9HdIy2j2/oh7oxQkXNkfppxCDD5r2MGHMhGkADODS15b+T347/P89jFZo2jkh3TOCRQ3cS5Dt0xFybRKKzFRqrUtSUNQxGhAa9yGeWNhAKcccYuUgjyHs08bPBf8qA9HPlwlE6iz8Er6wLpUv6NPY9Kr01x+OdEz/nHaXtieC0x4dWxDmaSJwLDXlBe6BtziWoz3zaDJErRh/94kQBC4Wqqzt25AEP4GPma9DgTpILLSXu+Bb4EA+IsnpzcbQVFSD1viDgng03Dc8Y8u+NSSlOmOOC6ketAsYO0WY8x+vr4L+PLkeXsLfwIivtzTqD82NfixpE14jbpyMp/KDLUtJQ/SABRfbefqPkueyNTAvZIYOy0VDHf+pYmV35ASQmZ1wFkNYaEAmelxx1fdALJrKqIqz4VK4KQjXnGuGMDaiysrouHMlCcICqPTxpirfWpmpsHqitkriiFSuN1nj9nbj888OH4kT89tWQuRweEltTG2aebBTF+JVuscTQJADdzgY8YRQtBfatM7Q5KlzqjjZhYMIKBe+sJXHP39xs3pUVUCYNWfc+KejyTptCWiCg+DesJhZnSELbS9dYyt1XHsiqUQiHa7TlNocx0z1to0b6wgTSQDHF7Gm2wse8xls5ffovBtYeJQLwLNdt2x+xAYauNZjc7FskabTrN1SAaoNT0CEJcAaAVgILGmToSjOQ6HIyfi8MQ9RyvJuf6cQxUhUrTiifkDNK5sawo4rdaSwNnrVRASVKdWNAWOWK3lgbP15HIgBGXjAa9V8rXX5QOYsm6dlBMRsMZgLR+HoIb59vOBUqvVGWpquESqVrXJ6txCze9dejssyqEVlec61vfIx49DK8NSgx3+6A//DltOQgAFf40spf+1dy+opxzlsWbi4cOHNw/5AWpWy5W1mlWzx0MG6JG192Qt98Z3s/9sas29m59LgRrA3uuS5fqGKuIX0HPvv2NQz/uwsv5hCErQIwUMQUHlxfr6+kM9yKqZkFccSpI2EKkbTz0c/6+9sjiAKISBKGSu00lu6Y/a1/DV49q8L0AMBwyD4MilW5kPodebA2MjtQIcXRjnlF0xifpV2NVgM0MXJ+ds3ktysRMFm8wucJWx2l1kp8xqi80ttyLNIu2w+L0Cco0MK3kTRfochBBCCCGEOAIpdv50KIkXEgAAAABJRU5ErkJggg==;" vertex="1" parent="Aneuq1_yQKHBpm85li8e-1">
          <mxGeometry x="479.61" y="20" width="100.39" height="80" as="geometry" />
        </mxCell>
        <mxCell id="Aneuq1_yQKHBpm85li8e-23" value="" style="rounded=0;whiteSpace=wrap;html=1;" vertex="1" parent="Aneuq1_yQKHBpm85li8e-1">
          <mxGeometry x="450" y="200" width="130" height="110" as="geometry" />
        </mxCell>
        <mxCell id="Aneuq1_yQKHBpm85li8e-24" value="" style="shape=image;imageAspect=0;aspect=fixed;verticalLabelPosition=bottom;verticalAlign=top;image=https://images.vexels.com/media/users/3/222601/isolated/preview/c06ee6af4263551a5279e6cdb038f279-engranajes-girando-engranajes-de-icono-de-trazo-by-vexels.png;" vertex="1" parent="Aneuq1_yQKHBpm85li8e-1">
          <mxGeometry x="490.19" y="210" width="40" height="40" as="geometry" />
        </mxCell>
        <mxCell id="Aneuq1_yQKHBpm85li8e-25" value="&lt;font style=&quot;font-size: 10px;&quot;&gt;Self-Hosted Runner&lt;/font&gt;" style="text;html=1;align=center;verticalAlign=middle;whiteSpace=wrap;rounded=0;" vertex="1" parent="Aneuq1_yQKHBpm85li8e-1">
          <mxGeometry x="480.19" y="260" width="60" height="30" as="geometry" />
        </mxCell>
        <mxCell id="Aneuq1_yQKHBpm85li8e-26" value="&lt;b&gt;Vagrant VM&lt;/b&gt;" style="text;html=1;align=center;verticalAlign=middle;whiteSpace=wrap;rounded=0;" vertex="1" parent="Aneuq1_yQKHBpm85li8e-1">
          <mxGeometry x="465.19" y="310" width="90" height="30" as="geometry" />
        </mxCell>
        <mxCell id="r5aUWkCWSRthDvzB2NxX-5" style="edgeStyle=orthogonalEdgeStyle;rounded=0;orthogonalLoop=1;jettySize=auto;html=1;exitX=1;exitY=0.5;exitDx=0;exitDy=0;entryX=0;entryY=0.5;entryDx=0;entryDy=0;startArrow=classic;startFill=1;" edge="1" parent="Aneuq1_yQKHBpm85li8e-1" source="Aneuq1_yQKHBpm85li8e-27" target="Aneuq1_yQKHBpm85li8e-24">
          <mxGeometry relative="1" as="geometry" />
        </mxCell>
        <mxCell id="Aneuq1_yQKHBpm85li8e-27" value="" style="shape=image;imageAspect=0;aspect=fixed;verticalLabelPosition=bottom;verticalAlign=top;image=https://miro.medium.com/v2/resize:fit:1200/1*VBsAVq_YVh2dqz03WeaJcA.png;strokeWidth=1;imageBorder=default;" vertex="1" parent="Aneuq1_yQKHBpm85li8e-1">
          <mxGeometry x="160" y="220" width="230" height="61.92" as="geometry" />
        </mxCell>
        <mxCell id="Aneuq1_yQKHBpm85li8e-33" value="" style="shape=image;imageAspect=0;aspect=fixed;verticalLabelPosition=bottom;verticalAlign=top;image=https://th.bing.com/th/id/OIP.iNqJzkyTYb8fRrOce2YM9gAAAA?rs=1&amp;pid=ImgDetMain;" vertex="1" parent="Aneuq1_yQKHBpm85li8e-1">
          <mxGeometry x="451" y="280" width="29" height="30" as="geometry" />
        </mxCell>
        <mxCell id="r5aUWkCWSRthDvzB2NxX-10" style="edgeStyle=orthogonalEdgeStyle;rounded=0;orthogonalLoop=1;jettySize=auto;html=1;exitX=0.5;exitY=1;exitDx=0;exitDy=0;entryX=0.5;entryY=0;entryDx=0;entryDy=0;" edge="1" parent="Aneuq1_yQKHBpm85li8e-1" source="r5aUWkCWSRthDvzB2NxX-7" target="Aneuq1_yQKHBpm85li8e-4">
          <mxGeometry relative="1" as="geometry" />
        </mxCell>
        <mxCell id="r5aUWkCWSRthDvzB2NxX-7" value="&lt;b&gt;PUSH&lt;/b&gt;" style="text;html=1;align=center;verticalAlign=middle;whiteSpace=wrap;rounded=0;" vertex="1" parent="Aneuq1_yQKHBpm85li8e-1">
          <mxGeometry x="85" y="10" width="60" height="30" as="geometry" />
        </mxCell>
      </root>
    </mxGraphModel>
  </diagram>
</mxfile>
